<svg data-v-0dd9719b="" version="1.0" xmlns="http://www.w3.org/2000/svg" xmlns:xlink="http://www.w3.org/1999/xlink" width="100%" height="100%" viewBox="0 0 340.000000 250.000000" preserveAspectRatio="xMidYMid meet" color-interpolation-filters="sRGB" style="margin: auto;"> <rect data-v-0dd9719b="" x="0" y="0" width="100%" height="100%" fill="#fff" fill-opacity="1" class="background"></rect> <rect data-v-0dd9719b="" x="0" y="0" width="100%" height="100%" fill="url(#watermark)" fill-opacity="1" class="watermarklayer"></rect> <g data-v-0dd9719b="" fill="#333333" class="icon-text-wrapper icon-svg-group iconsvg" transform="translate(63.5,94.94319152832031)"><g class="iconsvg-imagesvg" transform="translate(0,0)"><g><rect fill="#333333" fill-opacity="0" stroke-width="2" x="0" y="0" width="60" height="60.11361473184318" class="image-rect"></rect> <svg x="0" y="0" width="60" height="60.11361473184318" filtersec="colorsb7782535112" class="image-svg-svg primary" style="overflow: visible;"><svg xmlns="http://www.w3.org/2000/svg" viewBox="-0.0016283988952636719 -0.021178483963012695 384.0625915527344 384.7880554199219"><g><g><path d="M87.69 353.33c1.34-1.29 2.51-.81 3.61-.59 26.07 5.22 52 3.29 77.91-1.31a62.35 62.35 0 0 1 14.39-1.15c28.8 1.58 56.17-4.18 81.46-17.88 45.56-24.69 73.52-62.63 82.51-113.88 6.84-39 .1-75.85-21.52-109.06-16.08-24.7-39.8-36.92-69.6-37.27-25.77-.3-49.44 6-70.71 20.71-17.74 12.21-29.63 28.91-37.74 48.67.51.11 1 .28 1 .2 10.63-18.31 26.38-31.08 44.61-41.15 18.71-10.34 38.84-16.53 59.75-20.51 4.52-.86 5.49.91 5.39 5-.63 23.85-6.64 45.78-22.81 64-9.57 10.79-21.58 18.11-34.71 23.89s-26.74 9.24-40 14.14c-21.08 7.78-34.88 22.58-42.48 43.48-.48 1.32-.24 3.44-2.14 3.49-1.63 0-1.67-1.9-1.94-3.1-8.19-37.24-9.82-74.35 3.9-110.73 14.3-37.88 42.59-60.36 80.71-71.28 28.89-8.27 58.45-10.84 88.05-5.67 26.18 4.57 48 17.09 63.07 40.11 11.48 17.58 20.9 36.09 26.26 56.36 13.55 51.22 8.95 100.75-17.58 146.92-32.42 56.42-81.5 89.08-146.32 96.7-43.47 5.11-84.11-4.42-121.69-26.89a18.17 18.17 0 0 1-2.41-1.76 7.36 7.36 0 0 1-.97-1.44z" fill="#e89729"></path><path d="M295.76 32.28A216.28 216.28 0 0 0 271.07 29c-19.29-1.4-38.23 1-57.12 4.12a67.27 67.27 0 0 1-14.38 1.16 154.89 154.89 0 0 0-65.14 10.4 157.72 157.72 0 0 0-60.26 41.76C53 110 39.86 137.52 35.31 168.86c-5.39 37.09.88 72.33 20.61 104.23 15.56 25.16 39 38.26 69 39.38a121.58 121.58 0 0 0 60.86-13.15c24.22-12.32 40.3-32.12 50.33-57.09-1.14-.84-1.38.06-1.64.51-12.14 20.81-30.53 34.51-51.68 44.87a195.19 195.19 0 0 1-51.7 16.66c-6.38 1.14-6.88.82-6.48-5.46 1.66-26 8.41-49.93 28.32-68.36 9.8-9.07 21.29-15.35 33.58-20.35s25-8.36 37.28-12.94c20.39-7.58 33.31-22.54 41.11-42.41.58-1.47.51-3.35 2.67-4.33 2.76 6.53 3.59 13.45 4.57 20.27 4.29 29.83 4.4 59.45-5.29 88.45-12 36-36.47 59.77-71.69 72.83-21.79 8.08-44.49 10.91-67.64 11.65-18.26.58-35.83-1.66-52.74-8.69-19.1-7.93-33.68-20.84-44.58-38.46-17.9-28.94-28.32-60-29.95-94.16q-3.66-76.72 45.91-135.16C75.75 32.32 113.35 10.72 158.32 3c47.78-8.19 92.81.26 134.45 25.49a18.12 18.12 0 0 1 2.37 1.81c.2.19.2.6.62 1.98z" fill="#7eb042"></path></g></g></svg></svg> <!----></g></g> <g transform="translate(67,4.580558776855469)"><g data-gra="path-name" fill-rule="" class="tp-name iconsvg-namesvg" transform="translate(0,0)"><g transform="scale(1)"><g><path d="M4-23.2L4-26.4 17.57-26.4 17.98-26.4 17.98-36 22.02-36 22.02-26.4 36-26.4 36-23.2 22.02-23.2 20.35-23.2 8.45 0 4 0 15.93-23.2 4-23.2ZM21.15-1.98L17.15-9.81 17.11-9.81 21.57-9.81 25.6-1.98 21.15-1.98ZM31.55 0L20.66-21.18 25.11-21.18 36 0 31.55 0ZM54.17-14.82L54.14-14.78Q52.16-14.78 50.75-16.19 49.34-17.6 49.34-19.58L49.34-19.58 49.34-26.4 49.34-27.69 49.34-29.6 50.07-31.58 54.07-31.58 53.34-29.6 74-29.6 74-26.4 74-17.98 74-14.82 63.7-14.82 63.7-4.59Q63.7-2.05 62.42 0L62.42 0 58.35 0Q59.7-2.02 59.7-4.59L59.7-4.59 59.7-14.82 54.17-14.82ZM68.64-6.61L68.64-12.8 72.64-12.8 72.64-6.61Q72.64-4.03 74-1.98L74-1.98 69.9-1.98Q68.64-4.07 68.64-6.61L68.64-6.61ZM50.73-12.8L54.7-12.8 54.7-6.61Q54.7-4.07 53.44-1.98L53.44-1.98 49.37-1.98Q50.7-4.03 50.7-6.61L50.7-6.61 50.7-12.8 50.73-12.8ZM70-23.79L70-26.4 53.34-26.4 53.34-23.79 70-23.79ZM70-18.02L70-23.79 68.16-20.59 53.34-20.59 53.34-18.02 70-18.02ZM74-32.8L47.36-32.8 47.36-4.59Q47.36-2.05 46.1 0L46.1 0 42 0Q43.36-2.02 43.36-4.59L43.36-4.59 43.36-32.8 43.36-36 74-36 74-32.8ZM90.57-34.02L97.08-34.02 97.08-30.82 90.57-30.82 90.57-27.62 97.08-27.62 97.08-24.42 90.57-24.42 84.56-17.6 80.03-17.6 86.05-24.42 80.03-24.42 80.03-27.62 86.57-27.62 86.57-30.82 80.03-30.82 80.03-34.02 81.22-36 85.81-36 84.63-34.02 86.57-34.02 90.57-34.02ZM108-20.8L108-30.82 102.3-30.82 102.3-20.8 108-20.8ZM112-17.6L110.78-17.6 108-17.6 103.1-17.6Q101.11-17.6 99.7-19.01 98.3-20.42 98.3-22.4L98.3-22.4 98.3-30.82 98.3-34.02 112-34.02 112-30.82 112-17.6ZM97.04-17.6L92.52-17.6 89.15-21.39 93.67-21.39 97.04-17.6ZM110.02-16.42L110.78-16.42 110.78 0 109.18 0 106.82 0 86.02 0Q84.03 0 82.63-1.41 81.22-2.82 81.22-4.8L81.22-4.8 81.22-16.42 84-16.42 85.18-16.42 106.82-16.42 110.02-16.42ZM85.18-3.2L106.82-3.2 106.82-13.22 85.18-13.22 85.18-9.81 104.8-9.81 102.96-6.61 85.18-6.61 85.18-3.2ZM119.98-15.58L119.98-18.78 148.02-18.78 148.02-15.58 135.63-9.32 150-9.32 150-6.12 135.63-6.12 135.63-4.59Q135.63-3.51 135.32-2.28 135.01-1.04 134.38 0L134.38 0 130.28 0Q131.63-2.02 131.63-4.59L131.63-4.59 131.63-6.12 118-6.12 118-9.32 131.63-9.32 131.63-10.78 141.2-15.58 119.98-15.58ZM148.02-25.22L148.02-25.18 148.02-23.2 148.02-20 143.98-20 124.78-20Q122.83-20 121.41-21.41 119.98-22.82 119.98-24.8L119.98-24.8 119.98-25.22 119.98-28.42 148.02-28.42 148.02-25.22ZM124.02-23.2L143.98-23.2 143.98-25.18 124.02-25.18 124.02-23.2ZM134.77-36L136.61-32.8 150-32.8 150-29.6 118-29.6 118-32.8 131.98-32.8 130.14-36 134.77-36Z" transform="translate(-4, 36)"></path></g> <!----> <!----> <!----> <!----> <!----> <!----> <!----></g></g> <g data-gra="path-slogan" fill-rule="" class="tp-slogan iconsvg-slogansvg" fill="#7eb042" transform="translate(5,43)"><rect x="0" height="1" y="3.9750008583068848" width="9.78000259399414"></rect> <rect height="1" y="3.9750008583068848" width="9.78000259399414" x="126.21999740600586"></rect> <g transform="translate(12.78000259399414,0)"><g transform="scale(1)"><path d="M3.09-7.59L0.19-7.59L0.19-8.58L7.13-8.58L7.13-7.59L4.22-7.59L4.22 0L3.09 0L3.09-7.59ZM13.83 0L12.98-2.48L9.52-2.48L8.63 0L7.45 0L10.69-8.58L12-8.58L15.09 0L13.83 0ZM11.25-7.31L9.89-3.52L12.56-3.52L11.30-7.31L11.25-7.31ZM16.31-8.58L17.48-8.58L17.48 0L16.31 0L16.31-8.58ZM26.39-8.58L23.16-3.47L23.16 0L21.98 0L21.98-3.47L18.75-8.58L20.11-8.58L22.55-4.45L25.03-8.58L26.39-8.58ZM33.09-3.19L33.09-8.58L34.27-8.58L34.27-3.05Q34.13 0.05 30.75 0.14L30.75 0.14Q27.61 0.05 27.47-2.86L27.47-2.86L27.47-8.58L28.64-8.58L28.64-3.19Q28.69-0.84 30.80-0.80L30.80-0.80Q33.09-0.84 33.09-3.19L33.09-3.19ZM41.72 0L40.88-2.48L37.41-2.48L36.52 0L35.34 0L38.58-8.58L39.89-8.58L42.98 0L41.72 0ZM39.14-7.31L37.78-3.52L40.45-3.52L39.19-7.31L39.14-7.31ZM45.42-8.58L49.73-1.64L49.73-8.58L50.86-8.58L50.86 0L49.55 0L45.19-6.94L45.14-6.94L45.14 0L44.02 0L44.02-8.58L45.42-8.58ZM56.81-1.03L62.11-1.03L62.11 0L55.36 0L55.36-0.94L60.61-7.59L55.73-7.59L55.73-8.58L62.11-8.58L62.11-7.59L56.81-1.03ZM64.41-5.06L68.91-5.06L68.91-8.58L70.08-8.58L70.08 0L68.91 0L68.91-3.98L64.41-3.98L64.41 0L63.23 0L63.23-8.58L64.41-8.58L64.41-5.06ZM72.05-8.58L73.22-8.58L73.22 0L72.05 0L72.05-8.58ZM81.94-8.58L79.03-4.41L82.08 0L80.63 0L78.28-3.52L75.94 0L74.53 0L77.63-4.41L74.72-8.58L76.17-8.58L78.33-5.30L80.53-8.58L81.94-8.58ZM83.34-8.58L84.52-8.58L84.52 0L83.34 0L83.34-8.58ZM92.16 0L91.31-2.48L87.84-2.48L86.95 0L85.78 0L89.02-8.58L90.33-8.58L93.42 0L92.16 0ZM89.58-7.31L88.22-3.52L90.89-3.52L89.63-7.31L89.58-7.31ZM95.86-8.58L100.17-1.64L100.17-8.58L101.30-8.58L101.30 0L99.98 0L95.63-6.94L95.58-6.94L95.58 0L94.45 0L94.45-8.58L95.86-8.58ZM109.50-3.61L106.88-3.61L106.88-4.59L110.63-4.59L110.63 0L109.88 0L109.59-1.08Q108.61 0.09 106.78 0.14L106.78 0.14Q105.05 0.14 104.11-0.75L104.11-0.75Q102.70-2.06 102.75-4.36L102.75-4.36Q103.08-8.63 106.83-8.81L106.83-8.81Q110.02-8.63 110.48-6L110.48-6L109.36-6Q108.89-7.78 106.78-7.83L106.78-7.83Q104.11-7.64 103.97-4.31L103.97-4.31Q103.97-0.75 106.83-0.75L106.83-0.75Q107.86-0.75 108.61-1.31L108.61-1.31Q109.55-2.06 109.50-3.61L109.50-3.61Z" transform="translate(-0.1875, 8.8125)"></path></g></g></g></g></g><defs v-gra="od"></defs></svg>